<svg xmlns="http://www.w3.org/2000/svg" width="145" height="30" viewBox="0 0 145 30" fill="none"><path d="M0 29.5321V0.0965576H6.39071V27.604H16.6125V29.5404H0V29.5321Z" fill="white"></path><path d="M24.5158 29.5321H18.1251V0.0965576H24.5158V29.5321Z" fill="white"></path><path d="M28.3467 29.5321V0.0965576H34.7374V27.604H44.9592V29.5404H28.3467V29.5321Z" fill="white"></path><path d="M50.8017 1.08547C52.5719 0.370776 54.4168 0.0134277 56.3531 0.0134277C58.2894 0.0134277 60.1343 0.370776 61.8795 1.08547C63.633 1.80017 65.0707 2.81404 66.1926 4.11046C67.3145 5.4152 67.8713 6.83628 67.8713 8.38202V21.205C67.8713 22.9169 67.3062 24.4211 66.1677 25.7259C65.0292 27.0306 63.5998 28.0029 61.8795 28.6511C60.1593 29.2993 58.3144 29.6318 56.3531 29.6567C54.3918 29.6318 52.5386 29.291 50.8017 28.6511C49.0649 28.0029 47.6355 27.0306 46.5136 25.7259C45.3917 24.4211 44.8349 22.9169 44.8349 21.205V8.38202C44.8349 6.84459 45.3917 5.4152 46.4969 4.11046C47.6022 2.80573 49.0399 1.80017 50.8101 1.08547H50.8017ZM52.7381 26.1912C53.7436 27.1885 54.9486 27.6871 56.3531 27.6871C57.7576 27.6871 58.9626 27.1885 59.9681 26.1912C60.9737 25.194 61.4806 23.9973 61.4806 22.5928V7.03573C61.4806 5.63127 60.9737 4.42626 59.9681 3.4207C58.9626 2.41514 57.7493 1.9082 56.3531 1.9082C54.957 1.9082 53.7436 2.41514 52.7381 3.4207C51.7325 4.42626 51.2256 5.63958 51.2256 7.03573V22.5928C51.2256 23.9973 51.7325 25.194 52.7381 26.1912Z" fill="white"></path><path d="M71.1121 0.0965576H77.5028V19.8172C80.4198 18.1385 83.827 17.2908 87.7246 17.2908V0.0965576H94.1153V29.5321H87.7246V19.1856C84.8077 19.1856 82.3727 20.133 80.4281 22.0277C78.4751 23.9225 77.5028 26.424 77.5028 29.5321H71.1121V0.0965576Z" fill="white"></path><path d="M103.373 1.08547C105.143 0.370776 106.988 0.0134277 108.925 0.0134277C110.861 0.0134277 112.706 0.370776 114.451 1.08547C116.205 1.80017 117.642 2.81404 118.764 4.11046C119.886 5.4152 120.443 6.83628 120.443 8.38202V21.205C120.443 22.9169 119.878 24.4211 118.739 25.7259C117.601 27.0306 116.171 28.0029 114.451 28.6511C112.731 29.2993 110.886 29.6318 108.925 29.6567C106.963 29.6318 105.11 29.291 103.373 28.6511C101.636 28.0029 100.207 27.0306 99.0851 25.7259C97.9632 24.4211 97.4064 22.9169 97.4064 21.205V8.38202C97.4064 6.84459 97.9632 5.4152 99.0685 4.11046C100.174 2.80573 101.611 1.80017 103.382 1.08547H103.373ZM105.31 26.1912C106.315 27.1885 107.52 27.6871 108.925 27.6871C110.329 27.6871 111.534 27.1885 112.54 26.1912C113.545 25.194 114.052 23.9973 114.052 22.5928V7.03573C114.052 5.63127 113.545 4.42626 112.54 3.4207C111.534 2.41514 110.321 1.9082 108.925 1.9082C107.528 1.9082 106.315 2.41514 105.31 3.4207C104.304 4.42626 103.797 5.63958 103.797 7.03573V22.5928C103.797 23.9973 104.304 25.194 105.31 26.1912Z" fill="white"></path><path d="M130.324 0.0965576H136.715C136.715 1.83343 136.997 3.67004 137.554 5.60636C138.111 7.54269 138.8 9.41254 139.615 11.2242C140.429 13.0359 141.244 14.8725 142.058 16.734C142.873 18.5955 143.562 20.6482 144.136 22.892C144.709 25.1358 145 27.3464 145 29.5404H138.609C138.609 27.8617 138.493 26.3741 138.269 25.086C138.044 23.7979 137.62 22.2688 137.005 20.4986C134.454 20.4986 132.376 21.3214 130.781 22.9585C129.185 24.5957 128.387 26.7896 128.387 29.5404H121.997C121.997 27.3547 122.288 25.1358 122.861 22.892C123.434 20.6482 124.133 18.5955 124.947 16.734C125.761 14.8725 126.576 13.0359 127.382 11.2242C128.196 9.41254 128.886 7.54269 129.46 5.60636C130.033 3.67004 130.324 1.83343 130.324 0.0965576ZM136.465 18.8116L133.523 10.8253L129.991 20.2909C131.645 19.3102 133.806 18.8199 136.465 18.8199V18.8116Z" fill="white"></path></svg>